<svg width="24" height="24" viewBox="934 62 24 24" fill="none" xmlns="http://www.w3.org/2000/svg">
  <path d="M948.806 80.6943L948.76 79.9458L948.806 80.6943ZM943.333 70.8244L943.276 71.5723C943.479 71.5877 943.68 71.5196 943.832 71.3838C943.984 71.2479 944.075 71.056 944.082 70.8523L943.333 70.8244ZM952.525 77.3716L953.264 77.5015L952.525 77.3716ZM948.806 80.6943L948.76 79.9458C947.169 80.0438 945.534 80.2341 943.936 80.0486C942.375 79.8676 940.933 79.3326 939.759 78.0189L939.2 78.5185L938.641 79.0182C940.126 80.6811 941.952 81.3286 943.763 81.5386C945.535 81.7442 947.374 81.534 948.852 81.4429L948.806 80.6943ZM939.2 78.5185L939.759 78.0189C938.617 76.7398 938.386 75.0269 938.965 73.7058C939.523 72.4323 940.897 71.3926 943.276 71.5723L943.333 70.8244L943.389 70.0766C940.458 69.8552 938.436 71.1741 937.591 73.1038C936.766 74.9859 937.124 77.3206 938.641 79.0182L939.2 78.5185ZM948.806 80.6943L948.852 81.4429C949.385 81.4101 949.966 81.3726 950.496 81.265C951.026 81.1575 951.586 80.9652 952.034 80.565L951.535 80.0057L951.035 79.4464C950.871 79.5929 950.609 79.7116 950.198 79.795C949.787 79.8784 949.31 79.9118 948.76 79.9458L948.806 80.6943ZM952.525 77.3716L953.264 77.5015C953.521 76.043 953.936 74.239 953.931 72.4552C953.925 70.6326 953.487 68.7454 952.002 67.0825L951.442 67.5822L950.883 68.0818C952.057 69.3956 952.426 70.8887 952.431 72.4596C952.435 74.0691 952.063 75.6715 951.787 77.2417L952.525 77.3716ZM951.442 67.5822L952.002 67.0825C950.485 65.3849 948.205 64.7668 946.243 65.3748C944.23 65.9981 942.692 67.8588 942.583 70.7966L943.333 70.8244L944.082 70.8523C944.171 68.4678 945.358 67.219 946.686 66.8076C948.064 66.3809 949.74 66.8028 950.883 68.0818L951.442 67.5822ZM952.525 77.3716L951.787 77.2417C951.691 77.7847 951.604 78.2548 951.475 78.6535C951.346 79.0525 951.199 79.2998 951.035 79.4464L951.535 80.0057L952.034 80.565C952.482 80.1647 952.736 79.6293 952.903 79.1152C953.069 78.6007 953.172 78.0272 953.264 77.5015L952.525 77.3716Z" fill="currentColor"/>
</svg>